[img]http://tvafterdarkonline.com/wp-content/uploads/2012/10/The-Walking-Dead-Season-3-11.jpeg[/img]

[size=200][color=black]TV INFO[/color][/size]

[code]The Walking Dead S03E08 HDTV x264 AAC-V3nom

Format                                   : MPEG-4
Format profile                           : Base Media / Version 2
Codec ID                                 : mp42
File size                                : 151 MiB
Duration                                 : 43mn 19s
Overall bit rate mode                    : Variable
Overall bit rate                         : 487 Kbps
Encoded date                             : UTC 2012-12-03 11:04:59
Tagged date                              : UTC 2012-12-03 11:22:07

Video
ID                                       : 1
Format                                   : AVC
Format/Info                              : Advanced Video Codec
Format profile                           : Main@L3.0
Format settings, CABAC                   : Yes
Format settings, ReFrames                : 4 frames
Codec ID                                 : avc1
Codec ID/Info                            : Advanced Video Coding
Duration                                 : 43mn 19s
Bit rate mode                            : Variable
Bit rate                                 : 352 Kbps
Width                                    : 640 pixels
Height                                   : 360 pixels
Display aspect ratio                     : 16:9
Frame rate mode                          : Variable
Frame rate                               : 23.976 fps
Minimum frame rate                       : 23.974 fps
Maximum frame rate                       : 865.385 fps
Color space                              : YUV
Chroma subsampling                       : 4:2:0
Bit depth                                : 8 bits
Scan type                                : Progressive
Bits/(Pixel*Frame)                       : 0.064
Stream size                              : 110 MiB (73%)
Writing library                          : x264 core 112

Audio
ID                                       : 2
Format                                   : AAC
Format/Info                              : Advanced Audio Codec
Format profile                           : LC
Codec ID                                 : 40
Duration                                 : 43mn 19s
Bit rate mode                            : Variable
Bit rate                                 : 128 Kbps
Maximum bit rate                         : 174 Kbps
Channel(s)                               : 2 channels
Channel positions                        : Front: L R
Sampling rate                            : 48.0 KHz
Compression mode                         : Lossy
Delay relative to video                  : 42ms
Stream size                              : 39.7 MiB (26%)
Encoded date                             : UTC 2012-12-03 11:04:59
Tagged date                              : UTC 2012-12-03 11:22:05[/code]

[size=200][color=black]SOURCE[/color][/size]

[code]The.Walking.Dead.S03E08.HDTV.XviD-AFG (THANKS)[/code]

[size=200][color=black]SCREENSHOTS[/color][/size]

[img]http://img854.imageshack.us/img854/305/thewalkingdeads03e08hdtp.jpg[/img]

[img]http://kastatic.com/i2/users/133df62bbf28e62494bb17fe11078f1a.gif[/img][img]http://kastatic.com/i2/users/133df62bbf28e62494bb17fe11078f1a.gif[/img]
